<svg width="99" height="72" viewBox="0 0 99 72" fill="none" xmlns="http://www.w3.org/2000/svg">
<path d="M0.1 20.4V10.8C4.1 10.8 7.26667 10.1 9.6 8.7C12 7.3 13.9333 5.06666 15.4 2H25.4V72H14.6V15.7C12.7333 17.5667 10.7 18.8333 8.5 19.5C6.3 20.1 3.5 20.4 0.1 20.4ZM34.4859 72V60.4H45.8859V72H34.4859ZM52.5008 64.3L79.4008 38.1C82.6674 34.8333 84.9674 32 86.3008 29.6C87.6341 27.1333 88.3008 24.4667 88.3008 21.6C88.3008 18 87.1675 15.1667 84.9008 13.1C82.6341 11.0333 79.6008 10 75.8008 10C72.1341 10 69.1008 11.0667 66.7008 13.2C64.3674 15.3333 63.2008 18.2667 63.2008 22C63.2008 23.5333 63.4674 25.0333 64.0008 26.5L54.0008 28.3C53.2008 26.2333 52.8008 23.8 52.8008 21C52.8008 15.5333 54.9674 10.7667 59.3008 6.69999C63.6341 2.63333 69.1674 0.599995 75.9008 0.599995C82.9674 0.599995 88.5341 2.43333 92.6008 6.1C96.6674 9.76666 98.7008 14.4667 98.7008 20.2C98.7008 24.6667 97.8008 28.7333 96.0008 32.4C94.2008 36.0667 91.0341 40.1333 86.5008 44.6L68.7008 62.2H98.9008V72H52.5008V64.3Z" fill="black"/>
</svg>
