<svg width="47" height="72" viewBox="0 0 47 72" fill="none" xmlns="http://www.w3.org/2000/svg">
<path d="M0.0750001 64.3L26.975 38.1C30.2417 34.8333 32.5417 32 33.875 29.6C35.2083 27.1333 35.875 24.4667 35.875 21.6C35.875 18 34.7417 15.1667 32.475 13.1C30.2083 11.0333 27.175 10 23.375 10C19.7083 10 16.675 11.0667 14.275 13.2C11.9417 15.3333 10.775 18.2667 10.775 22C10.775 23.5333 11.0417 25.0333 11.575 26.5L1.575 28.3C0.775 26.2333 0.375 23.8 0.375 21C0.375 15.5333 2.54167 10.7667 6.875 6.69999C11.2083 2.63333 16.7417 0.599995 23.475 0.599995C30.5417 0.599995 36.1083 2.43333 40.175 6.1C44.2417 9.76666 46.275 14.4667 46.275 20.2C46.275 24.6667 45.375 28.7333 43.575 32.4C41.775 36.0667 38.6083 40.1333 34.075 44.6L16.275 62.2H46.475V72H0.0750001V64.3Z" fill="black"/>
</svg>
